<svg width="192" height="79" fill="none" xmlns="http://www.w3.org/2000/svg"><path d="M0 79h52.84C65.084 79 75 68.554 75 55.66V0H22.16C9.916 0 0 10.446 0 23.34V79zM101.049 6.092v12.12c0 3.337-2.61 6.059-5.81 6.059h-5.81v12.12h-5.843V0h11.621c3.201 0 5.842 2.754 5.842 6.092zm-5.841 0h-5.81v12.12h5.81V6.091zM108.414 0h5.81v6.06h-5.81v12.119h5.531v5.768h-5.531v6.384h5.81v6.06h-11.621V0h5.811zm13.268 30.33h5.811v6.06h-11.622V0h5.811v30.33zM129.108 0h5.811v36.39h-5.811V0zm24.859 6.092v6.06h-5.811v-6.06h-5.842v24.271h5.811v-6.092h5.811v6.06c0 3.337-2.611 6.06-5.811 6.06h-5.811c-3.2 0-5.81-2.723-5.81-6.06V6.092c0-3.338 2.61-6.06 5.81-6.06h5.811c3.232-.032 5.842 2.722 5.842 6.06zm19.016 0v30.33h-5.81v-12.15h-5.811v12.12h-5.81V6.091c0-3.338 2.61-6.06 5.81-6.06h5.811c3.2-.032 5.81 2.722 5.81 6.06zm-5.81 0h-5.811v12.12h5.811V6.091zM186.189 0H192v36.39h-5.811l-5.81-18.211V36.39h-5.811V0h5.811l5.81 18.211V0z" fill="#EBB200"/><path d="M101.049 47.894v6.06h-5.81v-6.06h-5.811v24.27h5.81v-6.059h5.811v6.06c0 3.337-2.61 6.06-5.81 6.06h-5.811c-3.2 0-5.81-2.722-5.81-6.06V47.894c0-3.338 2.61-6.06 5.81-6.06h5.81c3.17-.032 5.811 2.722 5.811 6.06zm20.353 0v30.33h-5.811V66.106h-5.81v12.12h-5.811V47.894c0-3.338 2.61-6.06 5.811-6.06h5.81c3.201-.032 5.811 2.722 5.811 6.06zm-5.811 0h-5.81v12.12h5.81v-12.12zm14.574 6.06v6.06h5.81c3.201 0 5.811 2.721 5.811 6.059v6.06c0 3.337-2.61 6.06-5.811 6.06h-5.81c-3.201 0-5.811-2.723-5.811-6.06h11.621v-6.06h-5.81c-3.201 0-5.811-2.722-5.811-6.06V47.894c0-3.338 2.61-6.06 5.811-6.06h5.81c3.201 0 5.811 2.722 5.811 6.06h-11.621v6.06zm14.573-12.152h5.81v36.39h-5.81v-36.39zm20.415 0h5.81v36.39h-5.81l-5.811-18.211v18.211H153.5v-36.39h5.811l5.811 18.211V41.802h.031zm26.194 6.092v24.27c0 3.338-2.61 6.06-5.81 6.06h-5.811c-3.2 0-5.81-2.722-5.81-6.06v-24.27c0-3.338 2.61-6.06 5.81-6.06h5.78c3.2-.032 5.841 2.722 5.841 6.06zm-5.841 0h-5.811v24.27h5.811v-24.27zM37.474 23.882V38.27c0 3.953-3.107 7.193-6.898 7.193h-6.898v14.388h-6.899V16.688h13.797c3.79 0 6.898 3.208 6.898 7.194zm-6.898 0h-6.898V38.27h6.898V23.882zm29.924 0v7.194h-6.9v-7.194h-6.898v28.775H53.6v-7.193h6.9v7.193c0 3.954-3.107 7.194-6.898 7.194h-6.898c-3.791 0-6.898-3.24-6.898-7.194V23.882c0-3.953 3.107-7.194 6.898-7.194H53.6c3.791 0 6.898 3.208 6.898 7.194z" fill="#010101"/></svg>