<svg width="139" height="54" fill="none" xmlns="http://www.w3.org/2000/svg"><g clip-path="url(#clip0_468_206)"><path d="M73.304 4.38v8.402c0 2.313-1.887 4.2-4.201 4.2h-4.2v8.402h-4.224V.157h8.402c2.313 0 4.223 1.91 4.223 4.223zm-4.223 0H64.88v8.402h4.2V4.38zM78.628.157h4.2v4.2h-4.2v8.402h3.998v3.999h-3.998v4.425h4.2v4.2h-8.401V.158h4.2zm9.592 21.026h4.2v4.2h-8.4V.158h4.2v21.026zM93.588.157h4.201v25.227h-4.2V.157zm17.971 4.223v4.201h-4.201v-4.2h-4.223v16.825h4.201v-4.223h4.201v4.2a4.209 4.209 0 01-4.201 4.201h-4.201a4.209 4.209 0 01-4.2-4.2V4.38a4.209 4.209 0 014.2-4.201h4.201c2.336-.023 4.223 1.887 4.223 4.2zm13.748 0v21.027h-4.201v-8.424h-4.2v8.401h-4.201V4.381A4.209 4.209 0 01116.906.18h4.2c2.314-.023 4.201 1.887 4.201 4.2zm-4.201 0h-4.2v8.402h4.2V4.381zM134.854.157h4.201v25.227h-4.201l-4.201-12.625v12.625h-4.2V.157h4.2l4.201 12.625V.157z" fill="#EBB200"/><path d="M73.304 33.359v4.2h-4.201v-4.2h-4.2v16.825h4.2v-4.2h4.2v4.2c0 2.314-1.886 4.2-4.2 4.2h-4.2a4.209 4.209 0 01-4.201-4.2V33.359a4.209 4.209 0 014.2-4.201h4.201c2.291-.023 4.2 1.887 4.2 4.2zm14.713 0v21.026h-4.2v-8.402h-4.201v8.402h-4.2V33.359a4.208 4.208 0 014.2-4.201h4.2c2.314-.023 4.201 1.887 4.201 4.2zm-4.2 0h-4.201v8.401h4.2v-8.401zm10.535 4.201v4.2h4.2a4.209 4.209 0 014.201 4.2v4.201c0 2.314-1.887 4.2-4.2 4.2h-4.2a4.209 4.209 0 01-4.202-4.2h8.401v-4.2h-4.2a4.209 4.209 0 01-4.2-4.201v-8.402c0-2.313 1.886-4.2 4.2-4.2h4.2a4.209 4.209 0 014.201 4.2h-8.4v4.201zm10.535-8.425h4.201v25.227h-4.201V29.135zm14.759 0h4.201v25.227h-4.201l-4.201-12.625v12.625h-4.223V29.135h4.201l4.201 12.625.022-12.625zm18.937 4.224v16.825c0 2.314-1.887 4.2-4.201 4.2h-4.2a4.209 4.209 0 01-4.201-4.2V33.359a4.209 4.209 0 014.201-4.201h4.178c2.314-.023 4.223 1.887 4.223 4.2zm-4.223 0h-4.201v16.825h4.201V33.359z" fill="#fff"/><path d="M22.356 16.713H17.37v9.974h4.987v-9.974z" fill="#EBB200"/><path d="M16.314.225C7.44.225.252 7.413.252 16.286v38.3h38.3c8.874 0 16.062-7.188 16.062-16.061V.225h-38.3zm11.03 26.462c0 2.74-2.247 4.987-4.988 4.987H17.37v9.974h-4.986V11.725h9.971a4.99 4.99 0 014.987 4.987v9.974zM43.988 21.7h-4.987v-4.987h-4.987V36.66h4.987v-4.986h4.987v4.986c0 2.741-2.247 4.988-4.987 4.988h-4.987c-2.74 0-4.987-2.247-4.987-4.988V16.713c0-2.74 2.246-4.987 4.987-4.987h4.987a4.99 4.99 0 014.987 4.987V21.7z" fill="#EBB200"/></g><defs><clipPath id="clip0_468_206"><path fill="#fff" transform="translate(.028)" d="M0 0h138.825v53.98H0z"/></clipPath></defs></svg>